<svg xmlns="http://www.w3.org/2000/svg" viewBox="0 0 512.84 500.01"><defs><style>.a{fill:#00005b;}.b{fill:#99f;}</style></defs><title>adobe-premiere-pro</title><path class="a" d="M90.81,0H422a90.74,90.74,0,0,1,90.82,90.81V409.2A90.73,90.73,0,0,1,422,500H90.81A90.73,90.73,0,0,1,0,409.2V90.81A90.74,90.74,0,0,1,90.81,0Z"/><path class="b" d="M121.8,350.65V130.77c0-1.49.64-2.35,2.14-2.35,3.63,0,7.05,0,12-.21,5.13-.21,10.47-.21,16.24-.43s12-.21,18.59-.43,13-.21,19.45-.21c17.52,0,32,2.14,44,6.62a76.35,76.35,0,0,1,28.64,17.53,67.94,67.94,0,0,1,15.6,24.36,81.86,81.86,0,0,1,4.91,27.77q0,27.57-12.82,45.52A73.2,73.2,0,0,1,236.12,275c-14.53,5.34-30.56,7.26-48.08,7.26-5.13,0-8.55,0-10.68-.21s-5.13-.21-9.19-.21v68.59a2.66,2.66,0,0,1-2.35,3H124.36C122.65,353.43,121.8,352.57,121.8,350.65Zm46.58-181v71.8c3,.21,5.77.43,8.33.43H188A79.61,79.61,0,0,0,212.61,238a36.71,36.71,0,0,0,17.52-11.32c4.49-5.35,6.63-12.61,6.63-22a35.19,35.19,0,0,0-4.92-19,31,31,0,0,0-15-12.18,62.55,62.55,0,0,0-25.22-4.27c-5.55,0-10.47,0-14.53.21a49.8,49.8,0,0,0-8.76.21Z"/><path class="b" d="M313.26,182.06h37.39a4.8,4.8,0,0,1,4.49,3.42,21.39,21.39,0,0,1,1.28,5.34c.43,2.13.86,4.48,1.07,6.62.21,2.35.43,4.92.43,7.69a79.63,79.63,0,0,1,22.86-18.37,66.17,66.17,0,0,1,32.48-8.34,2.66,2.66,0,0,1,3,2.35V223.3c0,1.71-1.07,2.35-3.42,2.35a92.62,92.62,0,0,0-23.08,2.13,88.75,88.75,0,0,0-17.94,5.77,33.3,33.3,0,0,0-10.9,7.91v109c0,2.13-.86,3-2.78,3H316a3,3,0,0,1-3.41-2.57V231.63c0-5.13,0-10.47-.22-16s-.21-11.11-.43-16.66c0-4.92-.42-9.62-.85-14.53a2,2,0,0,1,1.5-2.35c0-.22.42-.22.64,0Z"/></svg>