<svg xmlns="http://www.w3.org/2000/svg" viewBox="0 0 511.76 498.97"><defs><style>.a{fill:#001e36;}.b{fill:#31a8ff;}</style></defs><title>adobe-photoshop</title><rect class="a" width="511.76" height="498.97" rx="90.62"/><path class="b" d="M115.24,349.91V130.53c0-1.59.68-2.4,2.06-2.4,3.65,0,7,0,12-.17s10.47-.23,16.31-.34l18.54-.35q9.78-.17,19.39-.17,26.09,0,44,6.52a76.4,76.4,0,0,1,28.66,17.51,67.06,67.06,0,0,1,15.62,24.21A80.31,80.31,0,0,1,276.61,203q0,27.48-12.7,45.32a71.82,71.82,0,0,1-34.33,25.92c-14.42,5.38-30.45,7.2-48.07,7.2-5,0-8.58-.05-10.64-.17s-5.15-.17-9.27-.17v68.49a2.72,2.72,0,0,1-2.32,3.09,2.49,2.49,0,0,1-.77,0H117.64C116,352.65,115.24,351.74,115.24,349.91ZM161.6,169.33v71.55q4.46.35,8.24.34h11.33a80.56,80.56,0,0,0,24.55-3.92A37,37,0,0,0,223.23,226q6.69-7.89,6.69-22a34.74,34.74,0,0,0-5-18.88A32,32,0,0,0,210,172.93,63.68,63.68,0,0,0,185,168.64q-8.25,0-14.59.17t-8.76.52Z"/><path class="b" d="M409.35,227.87a80,80,0,0,0-20.43-7.21,108.28,108.28,0,0,0-23.86-2.75,44.38,44.38,0,0,0-12.87,1.55,11.55,11.55,0,0,0-6.7,4.29,10.79,10.79,0,0,0-1.71,5.84,9.08,9.08,0,0,0,2.06,5.49,23.25,23.25,0,0,0,7.21,5.66,141.8,141.8,0,0,0,15.1,7,150,150,0,0,1,32.79,15.62,50,50,0,0,1,16.82,17.68,47.17,47.17,0,0,1,5,22,49.41,49.41,0,0,1-8.24,28.33,54.23,54.23,0,0,1-23.86,19.05Q375,357.3,352,357.3a140.51,140.51,0,0,1-29-2.75,92.44,92.44,0,0,1-21.8-6.87,4.44,4.44,0,0,1-2.41-4.12V306.49a2,2,0,0,1,.86-1.89,1.66,1.66,0,0,1,1.89.17A91.62,91.62,0,0,0,328,315.24a108.66,108.66,0,0,0,25.07,3.26q12,0,17.68-3.09a9.7,9.7,0,0,0,5.66-8.92q0-4.47-5.15-8.59T350.3,288a126.06,126.06,0,0,1-30.38-15.45,52.42,52.42,0,0,1-16.14-18,47.35,47.35,0,0,1-5-21.8A49.21,49.21,0,0,1,306,206.93a52.37,52.37,0,0,1,22.32-19.57q15.1-7.55,37.76-7.55a167.13,167.13,0,0,1,26.44,1.88,69.58,69.58,0,0,1,18.4,5,3.13,3.13,0,0,1,2.06,1.89,9.31,9.31,0,0,1,.34,2.57v34.68a2.3,2.3,0,0,1-1,2.06A3.33,3.33,0,0,1,409.35,227.87Z"/></svg>